<svg width="164" height="160" viewBox="0 0 164 160" fill="none" xmlns="http://www.w3.org/2000/svg">
<g clip-path="url(#clip0_603_3665)">
<path d="M152.934 107.895C136.816 145.421 94.2721 161.54 60.9403 158.792C51.8386 158.041 33.5257 156.531 19.2267 143.062C-8.23519 117.195 -4.00586 63.123 22.2805 31.2923C25.6662 27.1929 49.0977 -0.273175 85.6123 0.0942283C112.348 0.363393 131.11 15.4065 133.391 17.2804C136.274 19.6484 142.631 25.2742 148.361 34.1992C161.823 55.1696 163.006 84.4449 152.934 107.895Z" fill="url(#paint0_linear_603_3665)"/>
<path d="M6.19036 12.6773C6.10485 12.0203 7.05401 11.6858 7.56308 12.1901C12.7313 17.311 24.8732 32.3087 19.0676 55.7777C11.7833 85.2233 17.9047 96.8576 26.2311 104.42C26.2311 104.42 14.1827 100.039 7.53287 88.1892C-8.79844 59.0939 7.71529 24.3559 6.19036 12.6773Z" fill="#91B3FA"/>
<g style="mix-blend-mode:soft-light">
<path d="M9.52413 22.4426C9.88897 25.8401 10.1763 29.2393 10.3188 32.6396C10.4826 36.0388 10.5257 39.4357 10.4482 42.8304C10.3547 46.2216 10.1871 49.6095 9.85249 52.9814C9.5361 56.3545 9.05097 59.7082 8.55045 63.0739C8.07217 66.4402 7.56823 69.8286 7.46732 73.2823C7.36642 76.736 7.7324 80.2527 8.83549 83.6338C9.11197 84.4765 9.40555 85.3186 9.75615 86.1386C10.0879 86.9642 10.4613 87.7785 10.8518 88.5872C11.6498 90.2202 12.5682 91.7919 13.5995 93.2896C15.6963 96.3112 18.3146 99.0681 21.2635 101.477C21.5737 101.73 22.0559 101.725 22.341 101.464C22.626 101.203 22.6055 100.802 22.3108 100.547C21.6124 99.9449 20.9221 99.3361 20.2648 98.7035C19.9307 98.3918 19.6126 98.0681 19.2877 97.7495C18.977 97.4213 18.6521 97.1033 18.3528 96.7672C17.1427 95.4565 16.0307 94.0592 15.0259 92.5866C13.0306 89.6826 11.5159 86.519 10.4545 83.2908C9.94617 81.6828 9.57638 80.0346 9.34912 78.364C9.13191 76.7026 9.04348 75.0271 9.08461 73.3521C9.15358 69.9972 9.62047 66.6389 10.0708 63.2693C10.5212 59.8996 10.9362 56.5067 11.1933 53.1046C11.3271 51.4011 11.4255 49.6975 11.4886 47.9939C11.5262 47.1421 11.5456 46.2903 11.5638 45.434C11.5741 44.58 11.5781 43.7259 11.5758 42.8718C11.5553 39.4556 11.4126 36.0403 11.1477 32.626C10.8626 29.2149 10.4733 25.8117 9.9323 22.4171C9.92035 22.3675 9.89047 22.3242 9.84839 22.2952C9.80631 22.2663 9.75499 22.2539 9.70427 22.2603C9.68033 22.2602 9.6566 22.2648 9.63448 22.2739C9.61237 22.2831 9.59232 22.2965 9.57552 22.3135C9.55873 22.3305 9.54552 22.3507 9.5367 22.3729C9.52787 22.3951 9.52359 22.4188 9.52413 22.4426Z" fill="white"/>
</g>
<path d="M21.1683 86.9946C21.0301 87.1825 20.8476 87.3337 20.6369 87.4348C20.4263 87.5359 20.1938 87.5837 19.9602 87.5742C19.7265 87.5647 19.4988 87.498 19.2971 87.3801C19.0954 87.2621 18.9259 87.0966 18.8037 86.898C15.8707 82.1638 8.7927 68.031 15.1387 49.8964C20.4973 34.5819 21.943 25.7705 22.3216 21.7256C22.4014 20.8698 23.5312 20.6132 23.9748 21.3486C28.8939 29.4632 42.722 57.4342 21.1683 86.9946Z" fill="#BDD0FB"/>
<g style="mix-blend-mode:soft-light">
<path d="M19.8492 86.6243C19.8249 86.6317 19.7998 86.6369 19.7745 86.6396C19.6704 86.6513 19.5658 86.6213 19.4839 86.5562C19.4019 86.4912 19.3492 86.3964 19.3373 86.2927C19.3099 86.0479 16.6397 61.5551 23.1254 39.9265C23.1566 39.8277 23.2257 39.745 23.3177 39.6965C23.4097 39.648 23.5171 39.6376 23.6168 39.6675C23.7164 39.6974 23.8003 39.7651 23.8501 39.8562C23.8999 39.9472 23.9118 40.0541 23.883 40.1537C17.4441 61.6249 20.0955 85.9627 20.1206 86.2069C20.1304 86.2969 20.1087 86.3876 20.0593 86.4636C20.0099 86.5396 19.9357 86.5964 19.8492 86.6243Z" fill="white"/>
</g>
<path d="M7.61839 131.383C7.6214 132.091 7.90528 132.768 8.40808 133.268C8.91089 133.768 9.59181 134.05 10.3023 134.052H155.458C156.168 134.05 156.849 133.768 157.352 133.268C157.855 132.768 158.138 132.091 158.141 131.383L159.349 48.2882C159.349 46.8192 157.612 43.9509 154.427 44.1667L12.566 40.5103C11.6498 40.4861 10.7382 40.6477 9.88663 40.9852C9.03502 41.3226 8.26115 41.829 7.61201 42.4735C6.96286 43.118 6.45199 43.8872 6.11039 44.7344C5.7688 45.5816 5.60361 46.4891 5.62487 47.4018L7.61839 131.383Z" fill="url(#paint1_linear_603_3665)"/>
<path d="M10.2681 128.82C10.27 129.49 10.5382 130.133 11.0141 130.607C11.4899 131.081 12.1348 131.348 12.8077 131.35H151.961C152.634 131.348 153.279 131.081 153.755 130.607C154.231 130.133 154.499 129.49 154.501 128.82L155.641 53.3865C155.507 48.8471 151.512 47.2156 149.09 47.3105L13.1287 43.6762C12.4847 43.6594 11.844 43.7731 11.2454 44.0105C10.6469 44.2479 10.1031 44.604 9.64693 45.0572C9.19078 45.5103 8.83184 46.0511 8.59191 46.6467C8.35198 47.2422 8.23606 47.8802 8.25119 48.5217L10.2681 128.82Z" fill="url(#paint2_linear_603_3665)"/>
<path d="M152.995 92.9838H152.989C152.94 92.9831 152.892 92.9727 152.847 92.9534C152.802 92.9341 152.762 92.9061 152.728 92.8712C152.694 92.8362 152.667 92.7949 152.649 92.7497C152.631 92.7044 152.622 92.656 152.623 92.6073L152.713 86.4898C152.714 86.3925 152.754 86.2997 152.824 86.2314C152.893 86.1631 152.987 86.1248 153.085 86.1246H153.09C153.139 86.1253 153.187 86.1356 153.232 86.1549C153.277 86.1741 153.318 86.2021 153.352 86.237C153.386 86.272 153.413 86.3133 153.431 86.3586C153.449 86.404 153.458 86.4524 153.457 86.5011L153.367 92.6187C153.365 92.716 153.326 92.8088 153.256 92.877C153.186 92.9453 153.093 92.9837 152.995 92.9838Z" fill="#91B3FA"/>
<path d="M153.216 77.9922H153.21C153.162 77.9915 153.113 77.9813 153.068 77.962C153.024 77.9428 152.983 77.9149 152.949 77.88C152.915 77.845 152.888 77.8038 152.87 77.7585C152.852 77.7133 152.843 77.665 152.844 77.6163L153.189 54.1859C153.182 52.7941 152.758 51.6828 151.928 50.8923C150.379 49.4159 147.919 49.4892 147.815 49.4937L104.358 48.333C104.26 48.3303 104.166 48.2887 104.098 48.2174C104.03 48.1461 103.994 48.0508 103.996 47.9525C103.996 47.9032 104.005 47.8543 104.024 47.8089C104.043 47.7634 104.072 47.7224 104.108 47.6885C104.144 47.6546 104.186 47.6285 104.233 47.6119C104.279 47.5953 104.329 47.5885 104.378 47.5919L147.81 48.7532C148.08 48.7373 150.699 48.6919 152.444 50.3568C153.425 51.2932 153.926 52.5834 153.933 54.191L153.588 77.6288C153.586 77.7258 153.546 77.8182 153.477 77.8862C153.407 77.9542 153.313 77.9922 153.216 77.9922Z" fill="#91B3FA"/>
<path d="M0.322098 140.952L163.678 140.952C163.856 140.952 164 140.809 164 140.631V133.972C164 133.795 163.856 133.651 163.678 133.651L0.322098 133.651C0.144211 133.651 0 133.795 0 133.972V140.631C0 140.809 0.144211 140.952 0.322098 140.952Z" fill="url(#paint3_linear_603_3665)"/>
<path d="M137.597 87.066H120.96C118.198 87.066 115.959 89.2967 115.959 92.0484V92.1086C115.959 94.8603 118.198 97.091 120.96 97.091H137.597C140.36 97.091 142.599 94.8603 142.599 92.1086V92.0484C142.599 89.2967 140.36 87.066 137.597 87.066Z" fill="url(#paint4_linear_603_3665)"/>
<path d="M121.802 89.2585C122.135 89.1903 122.743 89.1387 123.334 89.1387C124.113 89.1387 124.592 89.2329 124.987 89.5055C125.174 89.6152 125.328 89.7726 125.434 89.9615C125.539 90.1504 125.591 90.3639 125.586 90.5799C125.586 91.1086 125.253 91.5946 124.628 91.8246V91.8417C125.235 91.995 125.792 92.4726 125.792 93.2653C125.796 93.492 125.748 93.7167 125.651 93.9221C125.555 94.1276 125.413 94.3085 125.235 94.451C124.824 94.8087 124.148 94.9876 123.095 94.9876C122.663 94.9893 122.232 94.9637 121.803 94.9109L121.802 89.2585ZM122.846 91.5259H123.386C124.113 91.5259 124.526 91.1852 124.526 90.6991C124.526 90.1619 124.115 89.9149 123.447 89.9149C123.246 89.9082 123.046 89.9224 122.848 89.9575L122.846 91.5259ZM122.846 94.1693C123.031 94.1889 123.217 94.1974 123.403 94.1949C124.079 94.1949 124.678 93.9388 124.678 93.2295C124.678 92.5645 124.096 92.292 123.367 92.292H122.845L122.846 94.1693Z" fill="white"/>
<path d="M127.775 89.1814V92.5318C127.775 93.6573 128.246 94.1786 128.957 94.1786C129.718 94.1786 130.172 93.6584 130.172 92.5318V89.1814H131.224V92.4642C131.224 94.2376 130.309 95.0196 128.923 95.0196C127.587 95.0196 126.723 94.278 126.723 92.4705V89.1769L127.775 89.1814Z" fill="white"/>
<path d="M133.738 94.928V92.5322L131.914 89.1819H133.111L133.804 90.6583C134.001 91.0848 134.146 91.4084 134.301 91.8008H134.318C134.464 91.434 134.626 91.0762 134.823 90.6583L135.516 89.1819H136.706L134.789 92.5072V94.9286L133.738 94.928Z" fill="white"/>
<path d="M142.719 58.8686C142.551 58.6619 142.286 58.5761 142.006 58.5847L116.484 59.1179L115.838 57.0759C115.793 56.9378 115.704 56.8181 115.585 56.7353C115.465 56.6525 115.322 56.6112 115.177 56.6176L111.676 56.709C111.301 56.7187 110.996 56.9793 110.996 57.353C110.996 57.7266 111.301 57.9714 111.676 57.9629L114.671 57.8919L120.087 75.1394C120.133 75.2819 120.223 75.4063 120.344 75.495C120.465 75.5837 120.611 75.6321 120.761 75.6334L138.675 75.8731C139.095 75.8782 139.437 75.6158 139.437 75.2195C139.437 74.8231 139.095 74.5528 138.675 74.5483L121.284 74.3614L119.888 69.8833L139 69.9123C139.187 69.9132 139.37 69.8548 139.522 69.7455C139.674 69.6361 139.787 69.4816 139.845 69.3041L142.861 59.5892C142.9 59.4668 142.908 59.3367 142.883 59.2107C142.858 59.0848 142.801 58.9671 142.719 58.8686Z" fill="#BDD0FB"/>
<path d="M123.383 76.6947C121.908 76.672 120.716 77.8145 120.716 79.2421C120.716 80.6696 121.908 81.8616 123.383 81.9002C124.865 81.9388 126.078 80.7968 126.078 79.3534C126.078 77.9099 124.865 76.7197 123.383 76.6947ZM123.383 80.5118C122.693 80.4959 122.135 79.9394 122.135 79.2716C122.136 79.1113 122.17 78.953 122.234 78.8059C122.298 78.6589 122.391 78.526 122.507 78.4153C122.623 78.3045 122.761 78.2181 122.911 78.161C123.062 78.104 123.222 78.0775 123.383 78.0831C124.074 78.0956 124.637 78.6509 124.637 79.3233C124.636 79.4843 124.602 79.6434 124.538 79.7911C124.473 79.9389 124.38 80.0723 124.263 80.1834C124.146 80.2944 124.008 80.381 123.857 80.4378C123.705 80.4946 123.544 80.5205 123.383 80.514V80.5118Z" fill="#BDD0FB"/>
<path d="M135.324 76.8821C133.777 76.8582 132.525 78.028 132.525 79.4902C132.525 80.9525 133.777 82.1745 135.324 82.216C136.88 82.2568 138.154 81.0871 138.154 79.6084C138.154 78.1297 136.88 76.9059 135.324 76.8821ZM135.324 80.7929C134.601 80.7759 134.013 80.2052 134.013 79.5209C134.013 78.8366 134.6 78.2909 135.324 78.304C136.048 78.317 136.641 78.8877 136.641 79.576C136.641 80.2642 136.049 80.8099 135.324 80.7929Z" fill="#BDD0FB"/>
<path d="M57.7479 17.5371C76.5915 5.942 92.6782 6.04251 111.187 14.8954C111.774 15.1751 112.269 15.616 112.613 16.1662C112.957 16.7163 113.136 17.3529 113.129 18.001L113.12 18.7676C113.093 21.1112 110.748 22.725 108.539 21.9198C92.534 16.0868 80.5483 13.0044 61.1495 23.4235C59.0146 24.5705 56.3945 23.1838 56.1443 20.7801C56.0786 20.1441 56.1942 19.5024 56.4778 18.9289C56.7615 18.3553 57.2016 17.8729 57.7479 17.5371Z" fill="url(#paint5_linear_603_3665)"/>
<path d="M61.0714 8.57176L50.9954 23.9499C50.9249 24.0569 50.8835 24.1803 50.8753 24.308C50.8672 24.4357 50.8924 24.5634 50.9487 24.6784C51.005 24.7935 51.0904 24.892 51.1964 24.9643C51.3024 25.0365 51.4255 25.0801 51.5535 25.0907L69.2256 26.6007C69.3756 26.6132 69.5263 26.5864 69.6626 26.5229C69.799 26.4594 69.9163 26.3615 70.0028 26.2388C70.0893 26.1161 70.142 25.9729 70.1557 25.8236C70.1693 25.6743 70.1435 25.524 70.0807 25.3877C65.8599 19.9794 63.3915 14.3951 62.3654 8.66545C62.3099 8.54561 62.2232 8.44277 62.1143 8.36764C62.0054 8.29251 61.8783 8.24784 61.7461 8.23827C61.614 8.2287 61.4817 8.25459 61.363 8.31324C61.2444 8.3719 61.1437 8.46116 61.0714 8.57176Z" fill="url(#paint6_linear_603_3665)"/>
<path d="M43.4751 151.759C43.4751 151.759 43.1108 153.813 42.9324 155.848C42.9164 156.036 42.9389 156.226 42.9985 156.406C43.0582 156.585 43.1537 156.751 43.2795 156.893C43.4052 157.035 43.5585 157.15 43.73 157.231C43.9016 157.312 44.0879 157.358 44.2777 157.366C46.9958 157.479 52.8105 157.698 54.897 157.605C54.9699 157.601 55.041 157.581 55.1043 157.544C55.1676 157.508 55.2212 157.457 55.2607 157.396C55.3001 157.335 55.3242 157.265 55.3309 157.193C55.3377 157.12 55.3269 157.047 55.2994 156.98C55.202 156.737 55.0144 156.54 54.7755 156.43L45.171 152.032L43.4751 151.759Z" fill="url(#paint7_linear_603_3665)"/>
<path d="M43.1769 150.552L43.4694 153.009C43.4694 153.009 45.1517 153.789 46.3009 152.911L45.6054 150.175L43.1769 150.552Z" fill="url(#paint8_linear_603_3665)"/>
<path d="M43.3964 104.362C43.2704 105.004 42.718 136.379 46.0848 150.44C46.1124 150.551 46.0992 150.668 46.0477 150.77C45.9961 150.871 45.9096 150.952 45.8038 150.995C44.9277 151.333 44.0006 151.521 43.0618 151.55C42.8788 151.556 42.699 151.502 42.5506 151.395C42.4022 151.288 42.2936 151.135 42.242 150.96C41.2797 147.698 36.6679 131.353 36.0665 115.739C35.3944 98.2926 36.0665 115.145 36.0665 115.145L36.461 104.361L43.3964 104.362Z" fill="url(#paint9_linear_603_3665)"/>
<path d="M32.4266 152.831C32.4266 152.831 31.8468 153.868 31.2865 156.624C31.2619 156.741 31.2624 156.862 31.2879 156.979C31.3134 157.096 31.3634 157.206 31.4346 157.303C31.5059 157.399 31.5967 157.479 31.7012 157.539C31.8057 157.598 31.9216 157.634 32.0412 157.646C32.9385 157.734 34.3215 157.847 35.4274 157.839C35.5479 157.839 35.667 157.813 35.7768 157.764C35.8866 157.715 35.9847 157.643 36.0647 157.553C36.1447 157.463 36.2047 157.358 36.2409 157.243C36.2771 157.129 36.2885 157.008 36.2746 156.889C36.152 155.882 35.77 154.233 34.59 152.947L32.4266 152.831Z" fill="url(#paint10_linear_603_3665)"/>
<path d="M31.9175 149.671L32.6016 153.386C32.6016 153.386 33.2777 153.887 34.6151 153.524L34.2884 149.526L31.9175 149.671Z" fill="url(#paint11_linear_603_3665)"/>
<path d="M30.0705 105.325C27.3165 121.879 30.6674 146.24 31.7978 151.008C31.8311 151.151 31.9061 151.281 32.0133 151.381C32.1206 151.481 32.2553 151.548 32.4004 151.572C32.9049 151.656 33.7355 151.724 34.5547 151.487C34.6923 151.447 34.8137 151.364 34.9019 151.252C34.9901 151.139 35.0405 151.002 35.0461 150.859C35.1977 147.005 34.9247 123.34 37.4905 113.988C37.6205 113.514 37.9112 113.1 38.3131 112.816L43.2933 109.289L43.6752 103.589L30.0705 105.325Z" fill="url(#paint12_linear_603_3665)"/>
<path d="M46.3009 74.5481C46.3009 74.5481 33.6505 71.4079 24.8036 76.0751L30.0705 105.325C30.0705 105.325 38.4505 105.998 43.6752 104.342L46.3009 74.5481Z" fill="url(#paint13_linear_603_3665)"/>
<path d="M32.1131 65.7849L31.144 74.0853C31.1146 74.1418 31.1058 74.2067 31.1194 74.2689C31.1329 74.3311 31.1678 74.3867 31.2181 74.426C31.8668 74.9223 34.2452 76.4334 37.6125 74.9558C37.7861 74.8808 37.9409 74.7686 38.066 74.6273C38.1911 74.486 38.2835 74.3189 38.3365 74.1381L36.9684 66.9445L32.1131 65.7849Z" fill="url(#paint14_linear_603_3665)"/>
<path d="M39.878 61.458C39.878 61.458 41.1105 67.4557 40.1362 69.4466C39.162 71.4375 35.7792 70.2814 33.2886 67.7022L32.853 61.4881L39.878 61.458Z" fill="url(#paint15_linear_603_3665)"/>
<path d="M34.2343 64.9907C34.2664 64.9865 34.2972 64.9755 34.3247 64.9584C34.3521 64.9413 34.3755 64.9185 34.3932 64.8915C34.4109 64.8645 34.4225 64.834 34.4273 64.8021C34.432 64.7702 34.4298 64.7377 34.4207 64.7067C34.2987 64.3047 34.0867 63.4949 34.1323 62.8538C34.1323 62.8538 33.7287 62.3904 35.6144 62.4876C37.5002 62.5847 40.3232 62.7033 41.3151 61.3711C42.2842 60.0719 41.9525 55.9918 38.8313 58.2479C38.8038 58.2685 38.7718 58.2824 38.738 58.2886C38.7041 58.2949 38.6693 58.2932 38.6362 58.2838C38.603 58.2744 38.5726 58.2575 38.5471 58.2344C38.5216 58.2114 38.5018 58.1828 38.4893 58.1508C38.2613 57.562 37.5823 56.2803 36.0523 56.4881C34.6208 56.6818 34.2058 57.5631 34.0855 58.0333C34.0774 58.0657 34.062 58.0958 34.0405 58.1214C34.019 58.1471 33.992 58.1675 33.9615 58.1813C33.931 58.1951 33.8978 58.2019 33.8642 58.2012C33.8307 58.2004 33.7978 58.1921 33.768 58.1769C33.1649 57.868 31.6587 57.3132 30.4821 58.671C29.513 59.7891 29.6778 60.6329 29.9212 61.0929C29.9393 61.1267 29.9483 61.1646 29.9473 61.2028C29.9464 61.2411 29.9355 61.2785 29.9158 61.3114C29.896 61.3442 29.8681 61.3714 29.8347 61.3904C29.8013 61.4093 29.7635 61.4193 29.7251 61.4194C29.269 61.4245 28.6191 61.6204 28.3837 62.6164C28.0576 63.9941 29.6145 64.32 30.066 64.3865C30.1023 64.3918 30.1369 64.4057 30.1667 64.4272C30.1964 64.4486 30.2206 64.4769 30.237 64.5097C30.4872 65.0281 31.6468 67.2576 33.3957 67.9986C33.4308 68.0123 33.4688 68.0172 33.5062 68.0127C33.5437 68.0082 33.5794 67.9946 33.6102 67.973C33.6411 67.9514 33.6661 67.9225 33.6829 67.8889C33.6998 67.8553 33.7081 67.8181 33.707 67.7806L33.593 65.282C33.5904 65.226 33.6089 65.171 33.645 65.128C33.6811 65.085 33.7321 65.0571 33.7879 65.0497L34.2343 64.9907Z" fill="url(#paint16_linear_603_3665)"/>
<path d="M34.4543 65.4051C34.4543 65.4051 32.8827 63.4812 32.4021 64.5727C31.9215 65.6641 33.6899 66.7345 34.7645 66.5908L34.4543 65.4051Z" fill="url(#paint17_linear_603_3665)"/>
<path d="M52.9023 80.2956C52.9023 80.2956 57.6737 82.5051 63.2541 76.6045C67.0679 72.5727 69.4012 75.0451 70.1383 76.672C70.8754 78.299 69.1122 78.1638 68.4965 78.1638C67.8808 78.1638 67.805 76.3932 66.7207 76.6346C65.6364 76.8759 65.9551 76.5528 65.8867 77.6374C65.8183 78.722 59.9871 90.9707 52.7751 85.0048L52.9023 80.2956Z" fill="url(#paint18_linear_603_3665)"/>
<path d="M74.7097 81.0916L62.0998 80.3C61.5458 80.2652 60.9993 80.4416 60.5711 80.7936C60.143 81.1455 59.8653 81.6465 59.7944 82.1949L56.9709 104.04C56.9311 104.347 56.9574 104.658 57.0481 104.954C57.1387 105.25 57.2916 105.523 57.4966 105.756C57.7016 105.988 57.9539 106.174 58.2368 106.302C58.5197 106.429 58.8266 106.495 59.1371 106.495H75.591C75.8869 106.495 76.1797 106.435 76.4517 106.319C76.7237 106.203 76.9692 106.033 77.1733 105.82C77.3775 105.607 77.536 105.354 77.6393 105.078C77.7426 104.802 77.7886 104.507 77.7744 104.213L76.7539 83.1597C76.7281 82.6249 76.5053 82.1183 76.1282 81.7368C75.7511 81.3553 75.2461 81.1256 74.7097 81.0916Z" fill="#BDD0FB"/>
<path d="M72.8501 83.3114C72.9555 83.3112 73.0566 83.2705 73.1326 83.1978C73.2085 83.1252 73.2533 83.0261 73.2577 82.9213C73.2697 82.6408 73.4915 76.0428 68.83 75.3165C67.8324 75.162 66.9488 75.3949 66.1997 76.011C63.9297 77.8792 63.7382 82.6868 63.7313 82.8906C63.7294 82.9439 63.7381 82.9971 63.7568 83.0471C63.7756 83.0971 63.804 83.1429 63.8406 83.1819C63.8771 83.221 63.921 83.2524 63.9697 83.2746C64.0185 83.2967 64.0711 83.309 64.1247 83.3108C64.2326 83.3135 64.3373 83.2739 64.4163 83.2005C64.4953 83.1272 64.5422 83.0259 64.5471 82.9184C64.5471 82.8724 64.7335 78.2716 66.7208 76.6373C67.288 76.17 67.9373 76.0019 68.704 76.1206C72.6535 76.735 72.4448 82.8259 72.442 82.8872C72.4375 82.995 72.4762 83.1002 72.5495 83.1796C72.6228 83.2591 72.7248 83.3063 72.833 83.3108L72.8501 83.3114Z" fill="#BDD0FB"/>
<path d="M46.3009 74.5482L53.9968 80.2955C53.9968 80.2955 54.1331 84.6015 53.1121 86.6379L44.5377 84.5368L46.3009 74.5482Z" fill="url(#paint19_linear_603_3665)"/>
<path d="M22.4897 92.1306C22.4897 92.1306 23.3522 103.115 30.6126 103.588C30.6126 103.588 33.7241 103.304 35.0746 104.361C36.425 105.417 35.7706 107.045 35.7706 107.045L29.9143 106.333C29.9143 106.333 21.5371 107.722 16.5012 93.7581L22.4897 92.1306Z" fill="url(#paint20_linear_603_3665)"/>
<path d="M24.8036 76.0753C24.8036 76.0753 14.8679 81.9629 16.5012 93.7584C16.5012 93.7584 20.0504 95.2916 22.6311 93.2366C22.6311 93.2366 24.6423 85.5705 29.0102 85.1911L24.8036 76.0753Z" fill="url(#paint21_linear_603_3665)"/>
<path d="M82.154 56.76C87.5984 51.3368 87.5984 42.5441 82.1541 37.1209C76.7097 31.6977 67.8828 31.6977 62.4385 37.1209C56.9942 42.5441 56.9942 51.3368 62.4385 56.76C67.8828 62.1832 76.7097 62.1832 82.154 56.76Z" fill="url(#paint22_linear_603_3665)"/>
<path d="M81.8263 56.4334C87.0896 51.1905 87.0896 42.6901 81.8263 37.4472C76.563 32.2043 68.0295 32.2043 62.7662 37.4472C57.5029 42.6901 57.5029 51.1905 62.7662 56.4334C68.0295 61.6763 76.563 61.6763 81.8263 56.4334Z" fill="url(#paint23_linear_603_3665)"/>
<path opacity="0.76" d="M61.1831 41.6637C61.1318 41.6636 61.0813 41.6504 61.0366 41.6255C60.9918 41.6005 60.9542 41.5646 60.9273 41.521C60.9004 41.4775 60.8851 41.4278 60.8828 41.3768C60.8806 41.3257 60.8916 41.2749 60.9146 41.2293C61.9718 39.1259 63.5972 37.3582 65.608 36.125C67.6188 34.8917 69.9352 34.2419 72.2966 34.2486C73.0672 34.2484 73.8363 34.3174 74.5945 34.4547C74.6347 34.4603 74.6734 34.4739 74.7082 34.4947C74.743 34.5156 74.7732 34.5432 74.7969 34.5759C74.8207 34.6087 74.8376 34.6459 74.8466 34.6854C74.8556 34.7248 74.8565 34.7656 74.8492 34.8054C74.8419 34.8452 74.8267 34.8831 74.8043 34.9168C74.782 34.9506 74.753 34.9795 74.7191 35.0018C74.6853 35.0241 74.6472 35.0393 74.6073 35.0466C74.5674 35.0539 74.5264 35.0531 74.4868 35.0442C73.7641 34.9132 73.0311 34.8475 72.2966 34.8477C70.0469 34.8416 67.8401 35.4609 65.9245 36.6359C64.0089 37.811 62.4604 39.4951 61.4533 41.499C61.4281 41.5488 61.3895 41.5906 61.3418 41.6197C61.294 41.6488 61.2391 41.664 61.1831 41.6637Z" fill="white"/>
<path opacity="0.78" d="M80.656 55.2681C85.1108 50.8307 85.1108 43.6361 80.656 39.1987C76.2013 34.7612 68.9788 34.7612 64.524 39.1987C60.0693 43.6361 60.0693 50.8307 64.524 55.2681C68.9788 59.7056 76.2013 59.7056 80.656 55.2681Z" fill="white"/>
<path d="M71.4705 55.6807V54.4444C70.1771 54.3928 68.8973 54.0884 67.9886 53.692C67.8315 53.6222 67.7049 53.4986 67.6316 53.3436C67.5584 53.1887 67.5435 53.0126 67.5895 52.8476L67.9048 51.696C67.9321 51.5967 67.9804 51.5045 68.0466 51.4254C68.1127 51.3463 68.1951 51.2823 68.2882 51.2376C68.3813 51.193 68.4829 51.1687 68.5862 51.1665C68.6895 51.1642 68.7921 51.1841 68.887 51.2247C69.7883 51.6012 70.9016 51.8987 72.1022 51.8987C73.3483 51.8987 74.2775 51.4779 74.2775 50.6154C74.2775 49.8368 73.5593 49.374 71.8263 48.9118C69.3556 48.2389 67.581 47.1656 67.581 44.9987C67.581 43.0424 69.0175 41.5484 71.5093 41.1486V39.9118C71.5095 39.7208 71.5857 39.5377 71.7214 39.4026C71.857 39.2676 72.041 39.1918 72.2327 39.1918H72.9618C73.0568 39.1918 73.1508 39.2104 73.2385 39.2466C73.3262 39.2828 73.4058 39.3358 73.473 39.4027C73.5401 39.4695 73.5933 39.5489 73.6297 39.6363C73.666 39.7236 73.6847 39.8173 73.6847 39.9118V41.022C74.8818 41.0697 75.7535 41.2735 76.4449 41.5154C76.6156 41.5767 76.7567 41.6999 76.8401 41.8604C76.9234 42.0208 76.943 42.2067 76.8947 42.3809L76.6046 43.4456C76.5784 43.5425 76.5322 43.633 76.4689 43.711C76.4055 43.7891 76.3264 43.853 76.2367 43.8988C76.147 43.9445 76.0487 43.971 75.9481 43.9766C75.8475 43.9822 75.7468 43.9667 75.6525 43.9311C74.7882 43.6036 73.8706 43.4376 72.9459 43.4416C71.4671 43.4416 71.0447 44.0515 71.0447 44.5983C71.0447 45.2718 71.9317 45.7341 73.854 46.3235C76.5994 47.144 77.7401 48.2803 77.7401 50.3206C77.7401 52.1946 76.3458 53.876 73.6425 54.2956V55.6789C73.6425 55.8699 73.5663 56.0531 73.4308 56.1881C73.2952 56.3231 73.1114 56.399 72.9197 56.399H72.1905C71.9997 56.3981 71.8169 56.3221 71.682 56.1875C71.5472 56.053 71.4711 55.8708 71.4705 55.6807Z" fill="url(#paint24_linear_603_3665)"/>
<path d="M102.235 67.4977C105.631 64.1145 105.631 58.6292 102.235 55.246C98.8386 51.8628 93.332 51.8628 89.9357 55.246C86.5393 58.6292 86.5393 64.1145 89.9357 67.4977C93.332 70.8809 98.8386 70.8809 102.235 67.4977Z" fill="url(#paint25_linear_603_3665)"/>
<path d="M102.031 67.2943C105.314 64.0236 105.314 58.7206 102.031 55.4498C98.7472 52.1791 93.4236 52.1791 90.1401 55.4498C86.8566 58.7206 86.8566 64.0236 90.1401 67.2943C93.4236 70.5651 98.7472 70.5651 102.031 67.2943Z" fill="url(#paint26_linear_603_3665)"/>
<path opacity="0.76" d="M89.1524 58.2177C89.1013 58.2179 89.0509 58.206 89.0053 58.1831C88.9281 58.1441 88.8695 58.0761 88.8425 57.9942C88.8154 57.9122 88.8221 57.8229 88.8611 57.7458C89.5323 56.4111 90.5641 55.2893 91.8404 54.5068C93.1167 53.7243 94.5869 53.3121 96.0855 53.3166C96.5747 53.3166 97.063 53.3603 97.5443 53.4472C97.6277 53.4642 97.7012 53.513 97.749 53.5831C97.7968 53.6533 97.8153 53.7392 97.8004 53.8227C97.7855 53.9062 97.7385 53.9806 97.6694 54.0301C97.6003 54.0796 97.5145 54.1003 97.4303 54.0877C95.8499 53.8011 94.2188 54.0312 92.7805 54.7437C91.3421 55.4562 90.1736 56.6129 89.4494 58.0411C89.4214 58.0953 89.3787 58.1405 89.3262 58.1717C89.2737 58.2029 89.2135 58.2189 89.1524 58.2177Z" fill="white"/>
<path opacity="0.78" d="M101.301 66.5664C104.08 63.7982 104.08 59.31 101.301 56.5417C98.522 53.7735 94.0163 53.7735 91.2373 56.5417C88.4582 59.31 88.4582 63.7982 91.2373 66.5664C94.0163 69.3347 98.522 69.3347 101.301 66.5664Z" fill="white"/>
<path d="M95.5707 66.8242V66.053C94.7635 66.0207 93.9654 65.831 93.3982 65.584C93.3005 65.5401 93.2219 65.4628 93.1765 65.3661C93.1311 65.2695 93.122 65.1598 93.1508 65.057L93.3475 64.3381C93.3646 64.2762 93.3948 64.2187 93.4361 64.1694C93.4773 64.1201 93.5287 64.0802 93.5868 64.0523C93.6448 64.0244 93.7082 64.0093 93.7726 64.0078C93.837 64.0064 93.901 64.0187 93.9603 64.0439C94.5944 64.3144 95.276 64.4574 95.9658 64.4647C96.7434 64.4647 97.3231 64.2024 97.3231 63.664C97.3231 63.1785 96.875 62.8901 95.7948 62.601C94.2556 62.1808 93.1462 61.5119 93.1462 60.1592C93.1462 58.9383 94.0424 58.0065 95.5975 57.7572V56.986C95.5975 56.8669 95.645 56.7527 95.7296 56.6684C95.8142 56.5842 95.9289 56.5369 96.0484 56.5369H96.5045C96.6241 56.5369 96.7389 56.5842 96.8236 56.6684C96.9082 56.7526 96.9558 56.8669 96.956 56.986V57.6788C97.5423 57.6933 98.1229 57.7971 98.6776 57.9866C98.7841 58.0248 98.8722 58.1016 98.9242 58.2018C98.9763 58.3019 98.9883 58.418 98.9581 58.5266L98.7774 59.191C98.761 59.2515 98.7321 59.3078 98.6925 59.3564C98.653 59.4051 98.6036 59.4449 98.5476 59.4733C98.4917 59.5018 98.4303 59.5183 98.3676 59.5217C98.3048 59.5251 98.2421 59.5154 98.1834 59.4931C97.644 59.2892 97.0717 59.1859 96.4948 59.1882C95.5724 59.1882 95.3091 59.5687 95.3091 59.9099C95.3091 60.3296 95.862 60.6186 97.0615 60.9889C98.7717 61.4999 99.4854 62.2098 99.4854 63.4829C99.4854 64.651 98.616 65.701 96.9292 65.9633V66.8264C96.9292 66.9456 96.8817 67.0598 96.7971 67.1441C96.7126 67.2283 96.5979 67.2756 96.4783 67.2756H96.0222C95.9628 67.2757 95.9039 67.2641 95.849 67.2414C95.794 67.2187 95.7442 67.1854 95.7022 67.1435C95.6602 67.1015 95.627 67.0517 95.6045 66.9969C95.5819 66.9421 95.5704 66.8834 95.5707 66.8242Z" fill="url(#paint27_linear_603_3665)"/>
<path d="M84.281 76.4927C87.1604 73.6244 87.1604 68.974 84.281 66.1057C81.4016 63.2375 76.7331 63.2375 73.8536 66.1057C70.9742 68.974 70.9742 73.6244 73.8536 76.4927C76.7331 79.3609 81.4016 79.3609 84.281 76.4927Z" fill="url(#paint28_linear_603_3665)"/>
<path d="M84.1077 76.3199C86.8914 73.547 86.8914 69.0512 84.1077 66.2783C81.324 63.5053 76.8107 63.5053 74.027 66.2783C71.2433 69.0512 71.2433 73.547 74.027 76.3199C76.8107 79.0928 81.324 79.0928 84.1077 76.3199Z" fill="url(#paint29_linear_603_3665)"/>
<path opacity="0.76" d="M73.1893 68.6255C73.1421 68.6254 73.0956 68.6133 73.0544 68.5902C73.0131 68.5672 72.9785 68.5341 72.9538 68.4939C72.929 68.4538 72.915 68.4081 72.913 68.361C72.9111 68.314 72.9212 68.2672 72.9425 68.2251C73.5115 67.0931 74.3863 66.1418 75.4686 65.4782C76.5508 64.8145 77.7976 64.4649 79.0685 64.4688C79.4832 64.4697 79.897 64.5077 80.3049 64.5824C80.3414 64.5881 80.3764 64.601 80.4079 64.6203C80.4393 64.6397 80.4665 64.6652 80.4879 64.6952C80.5093 64.7252 80.5245 64.7592 80.5325 64.7951C80.5405 64.831 80.5412 64.8682 80.5346 64.9044C80.528 64.9406 80.5142 64.9752 80.494 65.006C80.4737 65.0368 80.4475 65.0633 80.4169 65.0839C80.3862 65.1044 80.3518 65.1187 80.3155 65.1258C80.2793 65.1329 80.2419 65.1327 80.2057 65.1252C79.8295 65.0572 79.4479 65.0232 79.0656 65.0236C77.8975 65.0202 76.7516 65.3416 75.7568 65.9517C74.7621 66.5617 73.958 67.4362 73.435 68.4767C73.4117 68.5216 73.3765 68.5592 73.3331 68.5854C73.2898 68.6117 73.2401 68.6255 73.1893 68.6255Z" fill="white"/>
<path opacity="0.78" d="M83.4886 75.7036C85.8446 73.3566 85.8446 69.5516 83.4886 67.2047C81.1326 64.8577 77.3127 64.8578 74.9566 67.2047C72.6006 69.5516 72.6006 73.3566 74.9566 75.7035C77.3127 78.0505 81.1326 78.0505 83.4886 75.7036Z" fill="white"/>
<path d="M78.6306 75.9214V75.2678C77.9465 75.2406 77.2693 75.0799 76.7887 74.8703C76.7059 74.8331 76.6392 74.7675 76.6007 74.6856C76.5623 74.6036 76.5545 74.5106 76.5789 74.4234L76.7459 73.8141C76.7604 73.7616 76.786 73.7129 76.821 73.6711C76.856 73.6293 76.8995 73.5955 76.9487 73.5719C76.9979 73.5482 77.0516 73.5354 77.1062 73.5342C77.1608 73.533 77.2151 73.5434 77.2653 73.5648C77.803 73.7941 78.3809 73.9153 78.9658 73.9214C79.6248 73.9214 80.1162 73.6988 80.1162 73.24C80.1162 72.8283 79.7365 72.5836 78.8204 72.3388C77.5138 71.9828 76.5749 71.4149 76.5749 70.269C76.5749 69.2343 77.3348 68.4439 78.6528 68.2326V67.579C78.6527 67.529 78.6626 67.4794 78.6818 67.4331C78.701 67.3869 78.7292 67.3448 78.7647 67.3094C78.8002 67.274 78.8424 67.246 78.8889 67.2268C78.9353 67.2077 78.9851 67.1979 79.0353 67.198H79.4213C79.4715 67.198 79.5212 67.2079 79.5676 67.227C79.6139 67.2462 79.6561 67.2742 79.6915 67.3096C79.727 67.345 79.7551 67.387 79.7743 67.4333C79.7935 67.4795 79.8033 67.529 79.8032 67.579V68.1662C80.3004 68.1785 80.7927 68.2664 81.2632 68.4268C81.3534 68.4593 81.4279 68.5245 81.472 68.6093C81.5161 68.6942 81.5264 68.7924 81.5009 68.8845L81.3475 69.4478C81.3338 69.4991 81.3094 69.547 81.2759 69.5883C81.2424 69.6296 81.2006 69.6635 81.1531 69.6877C81.1057 69.7119 81.0537 69.7259 81.0004 69.7288C80.9472 69.7317 80.894 69.7234 80.8442 69.7045C80.387 69.5315 79.9018 69.4437 79.4127 69.4456C78.6306 69.4456 78.4071 69.7681 78.4071 70.0577C78.4071 70.4138 78.8763 70.6585 79.8927 70.9697C81.3447 71.4041 81.9484 72.0049 81.9484 73.0838C81.9484 74.0742 81.2107 74.9646 79.7821 75.1849V75.9163C79.7822 75.9664 79.7724 76.0159 79.7532 76.0622C79.734 76.1085 79.7058 76.1505 79.6703 76.1859C79.6347 76.2213 79.5925 76.2494 79.5461 76.2685C79.4996 76.2876 79.4499 76.2974 79.3996 76.2973H79.0114C78.9111 76.297 78.8149 76.2575 78.7437 76.1871C78.6724 76.1168 78.6318 76.0213 78.6306 75.9214Z" fill="url(#paint30_linear_603_3665)"/>
<path d="M107.555 43.514C112.013 39.0734 112.013 31.8738 107.555 27.4333C103.097 22.9927 95.8698 22.9927 91.4119 27.4333C86.9541 31.8738 86.9541 39.0734 91.4119 43.514C95.8698 47.9545 103.097 47.9545 107.555 43.514Z" fill="url(#paint31_linear_603_3665)"/>
<path d="M107.287 43.2466C111.596 38.9537 111.596 31.9936 107.287 27.7007C102.977 23.4078 95.99 23.4078 91.6804 27.7007C87.3708 31.9936 87.3708 38.9537 91.6804 43.2466C95.99 47.5394 102.977 47.5394 107.287 43.2466Z" fill="url(#paint32_linear_603_3665)"/>
<path opacity="0.76" d="M90.3843 31.2326C90.3285 31.2325 90.2737 31.2182 90.2251 31.1911C90.1764 31.164 90.1356 31.1249 90.1064 31.0776C90.0772 31.0303 90.0606 30.9764 90.0583 30.9209C90.0559 30.8654 90.0679 30.8103 90.093 30.7607C90.9652 29.0252 92.3063 27.5666 93.9655 26.549C95.6246 25.5315 97.5359 24.9953 99.4843 25.0009C100.12 25.0011 100.755 25.0581 101.38 25.1713C101.423 25.178 101.465 25.1933 101.502 25.2162C101.539 25.2391 101.571 25.2691 101.596 25.3045C101.621 25.3399 101.639 25.3799 101.648 25.4223C101.658 25.4647 101.658 25.5085 101.651 25.5511C101.643 25.5938 101.626 25.6345 101.603 25.6708C101.579 25.7071 101.548 25.7383 101.512 25.7625C101.476 25.7868 101.435 25.8036 101.392 25.8119C101.35 25.8203 101.306 25.82 101.263 25.8112C100.676 25.7052 100.081 25.652 99.4843 25.6522C97.6569 25.647 95.8643 26.1499 94.3082 27.1042C92.7521 28.0586 91.4942 29.4266 90.6762 31.0543C90.6488 31.108 90.6071 31.1531 90.5555 31.1846C90.504 31.216 90.4447 31.2327 90.3843 31.2326Z" fill="white"/>
<path opacity="0.78" d="M106.329 42.2921C109.976 38.6588 109.976 32.768 106.329 29.1346C102.682 25.5013 96.7677 25.5013 93.1202 29.1346C89.4727 32.768 89.4727 38.6588 93.1202 42.2921C96.7677 45.9255 102.682 45.9255 106.329 42.2921Z" fill="white"/>
<path d="M98.8076 42.6294V41.6169C97.7484 41.5749 96.6983 41.3256 95.9573 41.0014C95.829 40.9439 95.7256 40.8425 95.666 40.7156C95.6064 40.5887 95.5944 40.4447 95.6323 40.3097L95.8906 39.3671C95.913 39.2858 95.9526 39.2103 96.0067 39.1455C96.0609 39.0808 96.1284 39.0283 96.2045 38.9917C96.2807 38.9551 96.3639 38.9351 96.4485 38.9332C96.5331 38.9312 96.6171 38.9473 96.6949 38.9804C97.5274 39.3354 98.422 39.5232 99.3275 39.5329C100.347 39.5329 101.108 39.1882 101.108 38.4818C101.108 37.8447 100.521 37.4659 99.1023 37.0866C97.0792 36.5358 95.6249 35.6567 95.6249 33.8827C95.6249 32.2808 96.801 31.0576 98.8412 30.7305V29.7181C98.8412 29.5616 98.9036 29.4115 99.0147 29.3009C99.1258 29.1902 99.2764 29.1281 99.4335 29.1281H100.03C100.187 29.1281 100.338 29.1902 100.449 29.3009C100.56 29.4115 100.623 29.5616 100.623 29.7181V30.6266C101.603 30.6658 102.316 30.8328 102.882 31.0309C103.022 31.0811 103.138 31.182 103.206 31.3134C103.274 31.4448 103.29 31.597 103.251 31.7396L103.013 32.6119C102.992 32.6912 102.954 32.7653 102.902 32.8292C102.85 32.8932 102.785 32.9455 102.712 32.983C102.639 33.0205 102.558 33.0422 102.476 33.0467C102.393 33.0512 102.311 33.0385 102.234 33.0094C101.526 32.7411 100.775 32.6052 100.017 32.6085C98.8065 32.6085 98.461 33.1082 98.461 33.5556C98.461 34.107 99.1873 34.4864 100.761 34.9685C103.009 35.6402 103.943 36.5704 103.943 38.2416C103.943 39.7748 102.803 41.1524 100.588 41.4971V42.6328C100.588 42.7892 100.525 42.9391 100.414 43.0497C100.303 43.1602 100.153 43.2223 99.9956 43.2223H99.3988C99.3208 43.2221 99.2437 43.2067 99.1718 43.1768C99.0999 43.1469 99.0346 43.1031 98.9797 43.0481C98.9247 42.993 98.8813 42.9277 98.8518 42.8558C98.8222 42.784 98.8072 42.7071 98.8076 42.6294Z" fill="url(#paint33_linear_603_3665)"/>
<path d="M114.658 109.271C98.2062 124.045 82.3623 126.818 62.5598 121.416C61.9322 121.245 61.3665 120.9 60.9291 120.42C60.4917 119.94 60.2007 119.346 60.0903 118.708L59.9609 117.952C59.5653 115.642 61.5822 113.636 63.9012 114.033C80.696 116.914 93.0454 117.805 110.251 104.089C112.145 102.58 114.972 103.476 115.651 105.796C115.83 106.41 115.832 107.061 115.656 107.676C115.48 108.291 115.134 108.844 114.658 109.271Z" fill="url(#paint34_linear_603_3665)"/>
<path d="M113.001 118.686L120.145 101.757C120.195 101.64 120.214 101.511 120.199 101.384C120.184 101.257 120.136 101.136 120.06 101.033C119.984 100.93 119.882 100.848 119.764 100.796C119.647 100.744 119.518 100.723 119.39 100.735L101.734 102.407C101.584 102.421 101.441 102.474 101.318 102.561C101.195 102.647 101.097 102.765 101.034 102.901C100.971 103.037 100.945 103.187 100.958 103.337C100.972 103.486 101.024 103.629 101.111 103.752C106.237 108.32 109.671 113.372 111.714 118.824C111.79 118.932 111.894 119.017 112.014 119.071C112.134 119.124 112.267 119.145 112.398 119.131C112.529 119.117 112.654 119.068 112.76 118.99C112.866 118.912 112.949 118.807 113.001 118.686Z" fill="url(#paint35_linear_603_3665)"/>
</g>
<defs>
<linearGradient id="paint0_linear_603_3665" x1="169.281" y1="179.763" x2="52.4743" y2="53.1957" gradientUnits="userSpaceOnUse">
<stop stop-color="#DAE3FE"/>
<stop offset="1" stop-color="#E9EFFD"/>
</linearGradient>
<linearGradient id="paint1_linear_603_3665" x1="145.563" y1="140.394" x2="-4.81887" y2="16.4165" gradientUnits="userSpaceOnUse">
<stop stop-color="#09005D"/>
<stop offset="1" stop-color="#1A0F91"/>
</linearGradient>
<linearGradient id="paint2_linear_603_3665" x1="10.707" y1="137.947" x2="147.48" y2="40.6063" gradientUnits="userSpaceOnUse">
<stop stop-color="#4F52FF"/>
<stop offset="1" stop-color="#4042E2"/>
</linearGradient>
<linearGradient id="paint3_linear_603_3665" x1="252640" y1="11664.8" x2="252612" y2="16964.9" gradientUnits="userSpaceOnUse">
<stop stop-color="#09005D"/>
<stop offset="1" stop-color="#1A0F91"/>
</linearGradient>
<linearGradient id="paint4_linear_603_3665" x1="131.268" y1="58.3897" x2="129.272" y2="92.4599" gradientUnits="userSpaceOnUse">
<stop stop-color="#FF928E"/>
<stop offset="1" stop-color="#FE7062"/>
</linearGradient>
<linearGradient id="paint5_linear_603_3665" x1="131107" y1="-1851.37" x2="112685" y2="37218" gradientUnits="userSpaceOnUse">
<stop stop-color="#FF928E"/>
<stop offset="1" stop-color="#FE7062"/>
</linearGradient>
<linearGradient id="paint6_linear_603_3665" x1="42493" y1="-5391.22" x2="17258.6" y2="9705.24" gradientUnits="userSpaceOnUse">
<stop stop-color="#FF928E"/>
<stop offset="1" stop-color="#FE7062"/>
</linearGradient>
<linearGradient id="paint7_linear_603_3665" x1="-35414.1" y1="15531.3" x2="-38071.6" y2="21642.1" gradientUnits="userSpaceOnUse">
<stop stop-color="#09005D"/>
<stop offset="1" stop-color="#1A0F91"/>
</linearGradient>
<linearGradient id="paint8_linear_603_3665" x1="43.1769" y1="151.751" x2="46.3009" y2="151.751" gradientUnits="userSpaceOnUse">
<stop stop-color="#FEBBBA"/>
<stop offset="1" stop-color="#FF928E"/>
</linearGradient>
<linearGradient id="paint9_linear_603_3665" x1="9421.54" y1="80030.4" x2="31036" y2="65916" gradientUnits="userSpaceOnUse">
<stop stop-color="#09005D"/>
<stop offset="1" stop-color="#1A0F91"/>
</linearGradient>
<linearGradient id="paint10_linear_603_3665" x1="-14857.2" y1="12643.2" x2="-17947.3" y2="16006.4" gradientUnits="userSpaceOnUse">
<stop stop-color="#09005D"/>
<stop offset="1" stop-color="#1A0F91"/>
</linearGradient>
<linearGradient id="paint11_linear_603_3665" x1="-8798.67" y1="11167.1" x2="-8671.02" y2="11167.1" gradientUnits="userSpaceOnUse">
<stop stop-color="#FEBBBA"/>
<stop offset="1" stop-color="#FF928E"/>
</linearGradient>
<linearGradient id="paint12_linear_603_3665" x1="11384.7" y1="79343.9" x2="35321.3" y2="57558.8" gradientUnits="userSpaceOnUse">
<stop stop-color="#09005D"/>
<stop offset="1" stop-color="#1A0F91"/>
</linearGradient>
<linearGradient id="paint13_linear_603_3665" x1="27475.9" y1="29164.3" x2="8397.1" y2="42003.2" gradientUnits="userSpaceOnUse">
<stop stop-color="#FF928E"/>
<stop offset="1" stop-color="#FE7062"/>
</linearGradient>
<linearGradient id="paint14_linear_603_3665" x1="-30666.3" y1="20059.7" x2="-29738.1" y2="20200.6" gradientUnits="userSpaceOnUse">
<stop stop-color="#FEBBBA"/>
<stop offset="1" stop-color="#FF928E"/>
</linearGradient>
<linearGradient id="paint15_linear_603_3665" x1="-73190" y1="-21007.4" x2="-74319.6" y2="-22140.8" gradientUnits="userSpaceOnUse">
<stop stop-color="#FEBBBA"/>
<stop offset="1" stop-color="#FF928E"/>
</linearGradient>
<linearGradient id="paint16_linear_603_3665" x1="-120857" y1="-18270.5" x2="-119218" y2="-15825.4" gradientUnits="userSpaceOnUse">
<stop stop-color="#09005D"/>
<stop offset="1" stop-color="#1A0F91"/>
</linearGradient>
<linearGradient id="paint17_linear_603_3665" x1="-21828.5" y1="-3934.06" x2="-22084.9" y2="-4222.21" gradientUnits="userSpaceOnUse">
<stop stop-color="#FEBBBA"/>
<stop offset="1" stop-color="#FF928E"/>
</linearGradient>
<linearGradient id="paint18_linear_603_3665" x1="-219601" y1="18402.5" x2="-219653" y2="15333.5" gradientUnits="userSpaceOnUse">
<stop stop-color="#FEBBBA"/>
<stop offset="1" stop-color="#FF928E"/>
</linearGradient>
<linearGradient id="paint19_linear_603_3665" x1="12613.9" y1="11700.4" x2="5047.46" y2="17624.4" gradientUnits="userSpaceOnUse">
<stop stop-color="#FF928E"/>
<stop offset="1" stop-color="#FE7062"/>
</linearGradient>
<linearGradient id="paint20_linear_603_3665" x1="-255305" y1="27827.1" x2="-255393" y2="23060.6" gradientUnits="userSpaceOnUse">
<stop stop-color="#FEBBBA"/>
<stop offset="1" stop-color="#FF928E"/>
</linearGradient>
<linearGradient id="paint21_linear_603_3665" x1="14398.4" y1="14060.4" x2="3375.49" y2="21732.6" gradientUnits="userSpaceOnUse">
<stop stop-color="#FF928E"/>
<stop offset="1" stop-color="#FE7062"/>
</linearGradient>
<linearGradient id="paint22_linear_603_3665" x1="26088.2" y1="33735.3" x2="35193" y2="23125.9" gradientUnits="userSpaceOnUse">
<stop stop-color="#FF928E"/>
<stop offset="1" stop-color="#FE7062"/>
</linearGradient>
<linearGradient id="paint23_linear_603_3665" x1="39060.9" y1="14936.4" x2="13056.9" y2="54374" gradientUnits="userSpaceOnUse">
<stop stop-color="#FF928E"/>
<stop offset="1" stop-color="#FE7062"/>
</linearGradient>
<linearGradient id="paint24_linear_603_3665" x1="14498.3" y1="10312.2" x2="4391.72" y2="20347.2" gradientUnits="userSpaceOnUse">
<stop stop-color="#FF928E"/>
<stop offset="1" stop-color="#FE7062"/>
</linearGradient>
<linearGradient id="paint25_linear_603_3665" x1="25773.6" y1="22949.5" x2="29317.3" y2="18820.3" gradientUnits="userSpaceOnUse">
<stop stop-color="#FF928E"/>
<stop offset="1" stop-color="#FE7062"/>
</linearGradient>
<linearGradient id="paint26_linear_603_3665" x1="30305.9" y1="15308.2" x2="20185.2" y2="30657.1" gradientUnits="userSpaceOnUse">
<stop stop-color="#FF928E"/>
<stop offset="1" stop-color="#FE7062"/>
</linearGradient>
<linearGradient id="paint27_linear_603_3665" x1="11391.5" y1="10117.8" x2="7456.57" y2="14024.8" gradientUnits="userSpaceOnUse">
<stop stop-color="#FF928E"/>
<stop offset="1" stop-color="#FE7062"/>
</linearGradient>
<linearGradient id="paint28_linear_603_3665" x1="17914.8" y1="21501.8" x2="20461.8" y2="18534.1" gradientUnits="userSpaceOnUse">
<stop stop-color="#FF928E"/>
<stop offset="1" stop-color="#FE7062"/>
</linearGradient>
<linearGradient id="paint29_linear_603_3665" x1="21192.7" y1="15844.1" x2="13918.6" y2="26876" gradientUnits="userSpaceOnUse">
<stop stop-color="#FF928E"/>
<stop offset="1" stop-color="#FE7062"/>
</linearGradient>
<linearGradient id="paint30_linear_603_3665" x1="7969.77" y1="10380.3" x2="5143.13" y2="13187.9" gradientUnits="userSpaceOnUse">
<stop stop-color="#FF928E"/>
<stop offset="1" stop-color="#FE7062"/>
</linearGradient>
<linearGradient id="paint31_linear_603_3665" x1="33673.8" y1="21426.8" x2="39778.2" y2="14313.9" gradientUnits="userSpaceOnUse">
<stop stop-color="#FF928E"/>
<stop offset="1" stop-color="#FE7062"/>
</linearGradient>
<linearGradient id="paint32_linear_603_3665" x1="41834.4" y1="8862.74" x2="24400.6" y2="35303.1" gradientUnits="userSpaceOnUse">
<stop stop-color="#FF928E"/>
<stop offset="1" stop-color="#FE7062"/>
</linearGradient>
<linearGradient id="paint33_linear_603_3665" x1="15658.2" y1="6179.71" x2="8880.02" y2="12907" gradientUnits="userSpaceOnUse">
<stop stop-color="#FF928E"/>
<stop offset="1" stop-color="#FE7062"/>
</linearGradient>
<linearGradient id="paint34_linear_603_3665" x1="73512.4" y1="26276.5" x2="78188.9" y2="310.644" gradientUnits="userSpaceOnUse">
<stop stop-color="#FF928E"/>
<stop offset="1" stop-color="#FE7062"/>
</linearGradient>
<linearGradient id="paint35_linear_603_3665" x1="34156.5" y1="33822.4" x2="44062.2" y2="19460.8" gradientUnits="userSpaceOnUse">
<stop stop-color="#FF928E"/>
<stop offset="1" stop-color="#FE7062"/>
</linearGradient>
<clipPath id="clip0_603_3665">
<rect width="164" height="159" fill="white" transform="translate(0 0.0908203)"/>
</clipPath>
</defs>
</svg>
